<?xml version="1.0" encoding="utf-8"?>
<!-- Generator: Adobe Illustrator 28.3.0, SVG Export Plug-In . SVG Version: 6.00 Build 0)  -->
<svg version="1.1" id="Layer_1" xmlns="http://www.w3.org/2000/svg" xmlns:xlink="http://www.w3.org/1999/xlink" x="0px" y="0px"
	 viewBox="0 0 1662.53 614.69" style="enable-background:new 0 0 1662.53 614.69;" xml:space="preserve">
<style type="text/css">
	.st0{fill:#63C7C5;}
</style>
<g>
	<g>
		<g>
			<path class="st0" d="M11.96,536.96l28.66-34.08c25.95,22.46,51.9,35.24,85.59,35.24c29.44,0,48.03-13.56,48.03-34.08v-0.77
				c0-19.37-10.84-29.82-61.19-41.44c-57.71-13.94-90.24-30.98-90.24-80.95v-0.77c0-46.48,38.73-78.62,92.56-78.62
				c39.5,0,70.88,12.01,98.37,34.08l-25.56,36.02c-24.4-18.2-48.8-27.89-73.59-27.89c-27.89,0-44.15,14.33-44.15,32.15v0.77
				c0,20.91,12.39,30.21,64.29,42.6c57.32,13.94,87.14,34.47,87.14,79.4v0.77c0,50.74-39.89,80.95-96.82,80.95
				C83.61,580.33,44.49,566,11.96,536.96z"/>
			<path class="st0" d="M278.03,305.35h47.64v136.33l128.97-136.33h58.48l-112.7,116.58l117.74,154.53h-57.71l-92.56-122
				l-42.22,43.38v78.62h-47.64V305.35z"/>
			<path class="st0" d="M747.41,305.35h47.64v271.11h-47.64V305.35z"/>
			<path class="st0" d="M855.46,441.68v-0.77c0-75.91,58.1-140.2,139.82-140.2c47.25,0,76.3,13.17,104.18,36.79l-30.21,36.02
				c-20.91-17.82-41.44-29.05-75.91-29.05c-49.96,0-87.92,43.76-87.92,95.66v0.77c0,55.77,36.79,96.83,92.18,96.83
				c25.56,0,48.8-8.13,65.45-20.53v-50.74h-69.33v-41.44h115.42v113.87c-26.72,22.85-65.07,42.22-113.09,42.22
				C911.23,581.11,855.46,520.69,855.46,441.68z"/>
			<path class="st0" d="M1163.36,305.35H1211v112.7h129.36v-112.7h47.64v271.11h-47.64V462.21H1211v114.25h-47.64V305.35z"/>
			<path class="st0" d="M1516.57,349.5h-85.98v-44.15h219.99v44.15h-85.98v226.96h-48.02V349.5z"/>
		</g>
		<g>
			<path d="M821.56,181.9c-72.91,44.71-142.71,105.12-181.11,182.55c-4.92-6.69-10.28-13.2-16.14-19.49
				c-39.7-42.63-92.55-71.34-148.95-83.72c75.99,32.87,126.1,75.97,154.32,127.6c-4.11,10.52-7.68,21.31-10.58,32.41
				c-10.02,39.85-11.44,85.6,12.11,121.28c22.85,34.69,65.06,52.18,105.35,52.55c-36.29-8.01-73.36-27.44-91.28-61
				c-17.62-32.85-8.59-83.96-0.09-119.08c23.61-97.49,103.7-161.72,182.79-223.66c20.57-15.86,41.84-30.91,63.81-45.22
				C867.41,155.91,844.2,168.44,821.56,181.9z"/>
		</g>
		<g>
			<path d="M878.15,52.93l5.6-7.34c0.31-0.41,0.8-0.63,1.31-0.6l163.26,9.98l53.88-30.19c7.54-4.22,16.22-5.93,24.8-4.86l8.42,1.04
				c0,0,17.42-3.22,12.03,11.35s-72.58,50.59-72.58,50.59l-8.98,68.85c-0.07,0.51-0.38,0.95-0.84,1.18l-11.43,5.62
				c-0.86,0.42-1.9-0.04-2.15-0.97l-10.58-39.01l-21.24-9.35l-70.29,24.89l2.34,4.33l-1.63,11.51l-6.14,2.27l-8.48-9.73l-11.76-6.1
				l-6.14,2.27l-4.4-3.57l3.4-3.01l-37.94-18.03l7.32-6.97l34.52,6.5l-8.4-23.45l11.92-3.37l28.82,18.31l31-17.15L960.2,76.28
				l-81.22-20.94C877.92,55.07,877.48,53.8,878.15,52.93z"/>
		</g>
	</g>
</g>
</svg>
